<svg preserveAspectRatio="none" data-v-fde0c5aa="" xmlns="http://www.w3.org/2000/svg" viewBox="0 0 300 300" class="iconAbove"><!----><defs data-v-fde0c5aa=""><!----></defs><rect data-v-fde0c5aa="" fill="#2E1435" x="0" y="0" width="300px" height="300px" class="logo-background-square"></rect><defs data-v-fde0c5aa=""><!----></defs><g data-v-fde0c5aa="" id="e06f35d0-37fe-47e0-a468-d61710d880b9" fill="#EAE8E7" transform="matrix(6.54993531929521,0,0,6.54993531929521,11.40335949258338,168.82490141731657)"><path d="M3.18 13.75L2.14 13.75L0.35 6.59L1.51 6.59L2.59 11.24L2.70 11.83L2.70 11.83Q2.81 11.24 2.81 11.20L2.81 11.20L3.84 6.59L4.79 6.59L5.82 11.21L5.82 11.21Q5.88 11.48 5.95 11.87L5.95 11.87L5.95 11.87Q5.98 11.58 6.08 11.21L6.08 11.21L7.11 6.59L8.27 6.59L6.48 13.75L5.46 13.75L4.45 9.31L4.30 8.55L4.30 8.55Q4.26 8.81 4.16 9.28L4.16 9.28L3.18 13.75ZM16.07 9.86L16.07 9.86L16.07 9.86Q16.07 10.32 16.03 10.64L16.03 10.64L11.03 10.64L11.03 10.64Q11.17 11.68 11.71 12.26L11.71 12.26L11.71 12.26Q12.25 12.84 13.12 12.84L13.12 12.84L13.12 12.84Q14.03 12.84 14.78 12.22L14.78 12.22L15.46 13.01L15.46 13.01Q14.45 13.92 13.08 13.92L13.08 13.92L13.08 13.92Q11.58 13.92 10.69 12.85L10.69 12.85L10.69 12.85Q9.80 11.79 9.80 10.16L9.80 10.16L9.80 10.16Q9.80 8.41 10.69 7.42L10.69 7.42L10.69 7.42Q11.58 6.43 13.08 6.43L13.08 6.43L13.08 6.43Q14.39 6.43 15.23 7.29L15.23 7.29L15.23 7.29Q16.07 8.16 16.07 9.86ZM11.00 9.60L11.00 9.60L14.88 9.60L14.88 9.60Q14.85 8.47 14.32 7.98L14.32 7.98L14.32 7.98Q13.79 7.49 13.08 7.49L13.08 7.49L13.08 7.49Q12.12 7.49 11.60 8.05L11.60 8.05L11.60 8.05Q11.07 8.61 11.00 9.60ZM21.87 13.92L21.87 13.92L21.87 13.92Q20.72 13.92 19.88 13.13L19.88 13.13L19.88 13.75L18.69 13.75L18.69 4.21L19.88 3.64L19.88 7.25L19.88 7.25Q20.22 6.87 20.73 6.65L20.73 6.65L20.73 6.65Q21.25 6.43 21.83 6.43L21.83 6.43L21.83 6.43Q23.21 6.43 24.04 7.43L24.04 7.43L24.04 7.43Q24.86 8.43 24.86 10.16L24.86 10.16L24.86 10.16Q24.86 11.97 24.07 12.94L24.07 12.94L24.07 12.94Q23.28 13.92 21.87 13.92ZM21.69 12.81L21.69 12.81L21.69 12.81Q22.65 12.81 23.15 12.11L23.15 12.11L23.15 12.11Q23.65 11.41 23.65 10.16L23.65 10.16L23.65 10.16Q23.65 8.88 23.15 8.20L23.15 8.20L23.15 8.20Q22.65 7.52 21.69 7.52L21.69 7.52L21.69 7.52Q21.07 7.52 20.59 7.82L20.59 7.82L20.59 7.82Q20.10 8.12 19.88 8.48L19.88 8.48L19.88 11.83L19.88 11.83Q20.16 12.29 20.64 12.55L20.64 12.55L20.64 12.55Q21.11 12.81 21.69 12.81ZM32.37 13.75L31.16 13.75L31.16 11.27L26.67 11.27L26.67 10.60L31.42 3.95L32.37 3.95L32.37 10.21L33.73 10.21L33.73 11.27L32.37 11.27L32.37 13.75ZM28.21 10.21L31.16 10.21L31.16 5.95L28.21 10.21ZM38.81 13.92L38.81 13.92L38.81 13.92Q35.66 13.92 35.66 10.04L35.66 10.04L35.66 3.95L36.86 3.95L36.86 10.04L36.86 10.04Q36.86 12.80 38.81 12.80L38.81 12.80L38.81 12.80Q40.75 12.80 40.75 10.04L40.75 10.04L40.75 3.95L41.97 3.95L41.97 10.04L41.97 10.04Q41.97 12.05 41.13 12.99L41.13 12.99L41.13 12.99Q40.29 13.92 38.81 13.92Z"></path></g><defs data-v-fde0c5aa=""><!----></defs><g data-v-fde0c5aa="" id="95559257-e9cb-44d0-88f0-0e93fde4b834" stroke="none" fill="#EAE8E7" transform="matrix(1.3767767249018361,0,0,1.3767767249018361,80.02394851202124,38.62322327509815)"><g clip-rule="evenodd"><path d="M12.983 10.59l17.018 88.223-5.872-59.049 29.021-1.892-.054-9.883L64.549 1 53.622 18.977z"></path><path d="M59.389 54.548l5.16-53.541-8.74 39.716-19.612 1.045 1.57 20.462-7.766 36.583 12.057-39.899z"></path><path d="M62.8 67.182l.549-10.453-15.979 3.755-.032 11.797-17.337 26.532 21.68-27.616zM65.711 62.394l14.841-4.731 1.509-12.532-15.899 2.095zM72.07 44.502l10.988-1.417 1.581-10.278-8.079-.373L64.549 1l8.43 30.967z"></path><path d="M87.413 31.294l1.256-9.506-9.544-2.694L64.549 1l14.483 22.437-.422 7z"></path></g></g><!----></svg> 
