<svg xmlns="http://www.w3.org/2000/svg" width="512" height="512" style="" viewBox="0 0 512 512" data-svgdocument="" id="_VlkBOQFk1kwvqn8Xvhpsj" class="fl-svgdocument" x="0" y="0" xmlns:xlink="http://www.w3.org/1999/xlink"><defs id="_H1sx4uedv5-JklOk1VQk_" transform="matrix(0.885137140750885, 0, 0, 0.885137140750885, 0.7287115454673767, 91.22136688232422)"></defs><path id="_rW1LcnfZq72BZ27U6Mlz_" d="M176.59,269.25,0,134.63,176.59,0,353.17,134.63ZM16.49,134.63,176.59,256.68,336.68,134.63,176.59,12.57Z" stroke="none" fill="#000000" transform="matrix(1.1745771169662476, 0, 0, 1.1745771169662476, 48.58728790283203, 97.87255096435547)" stroke-width="1"></path><path id="_1e6ovocYfhLv6sgjiNnUc" stroke="none" fill="#000000" transform="matrix(1.5470430850982666, 0, 0, 0.6792543530464172, 119.93130493164062, 117.36752319335938)" stroke-width="1" data-type="polygon" d="M88.385 8L0.391 160.359L176.379 160.359Z"></path><path id="_o7Mh7dCo4XHtlC8DhUIJT" stroke="none" fill="#000000" transform="matrix(-1.5470430850982666, 0, 0, -0.6792543530464172, 391.8785705566406, 393.4611511230469)" stroke-width="1" data-type="polygon" d="M88.385 8L0.391 160.359L176.379 160.359Z"></path><path id="_WzhkWBs7Uw-01xChXFrhI" stroke="none" fill="#ffffff" transform="matrix(0.8988568782806396, 0, 0, 0.8853141665458679, 176.80384826660156, 253.16368103027344)" stroke-width="1" data-type="rect" data-x="0" data-y="84.525" data-width="176.742" data-height="7.219" d="M0,84.525H176.742,V91.744,H0,Z"></path><path id="_pffXxRTkOTaUQ4KzOXvkd" stroke="none" fill="#ffffff" transform="matrix(0.8988568782806396, 0, 0, 0.8853141665458679, 176.80384826660156, 102.69034576416016)" stroke-width="1" data-type="rect" data-x="0" data-y="84.525" data-width="176.742" data-height="7.219" d="M0,84.525H176.742,V91.744,H0,Z"></path><path text="Metro Book" text-anchor="middle" font-size="100" letter-spacing="0" side="left" offset="0.5" dx="0" dy="0" space="preserve" href="" font-family="Montserrat" font-scale="contain" transform="matrix(0.4650511145591736, 0, 0, 0.4650511145591736, 254.1306915283203, 270.3645935058594)" x="0" y="0" fill="#ffffff" font-weight="700" data-fl-textpath="" id="_uWzml3fg3Bz9kyTPy5-SW" d="M-218.59999999999997 0L-233.79999999999995 0L-233.89999999999995-42L-254.49999999999994-7.4L-261.79999999999995-7.4L-282.29999999999995-41.1L-282.29999999999995 0L-297.49999999999994 0L-297.49999999999994-70L-284.09999999999997-70L-257.9-26.5L-232.09999999999997-70L-218.79999999999995-70L-218.59999999999997 0ZM-150.39999999999995-26.7Q-150.39999999999995-26.4 -150.69999999999996-22.5L-150.69999999999996-22.5L-191.39999999999995-22.5Q-190.29999999999995-17.5 -186.19999999999996-14.6Q-182.09999999999997-11.7 -175.99999999999994-11.7L-175.99999999999994-11.7Q-171.79999999999995-11.7 -168.54999999999995-12.95Q-165.29999999999995-14.2 -162.49999999999994-16.9L-162.49999999999994-16.9L-154.19999999999996-7.9Q-161.79999999999995 0.8 -176.39999999999995 0.8L-176.39999999999995 0.8Q-185.49999999999994 0.8 -192.49999999999994-2.75Q-199.49999999999994-6.3 -203.29999999999995-12.6Q-207.09999999999997-18.9 -207.09999999999997-26.9L-207.09999999999997-26.9Q-207.09999999999997-34.8 -203.34999999999997-41.15Q-199.59999999999997-47.5 -193.04999999999995-51.05Q-186.49999999999994-54.6 -178.39999999999995-54.6L-178.39999999999995-54.6Q-170.49999999999994-54.6 -164.09999999999997-51.2Q-157.69999999999996-47.8 -154.04999999999995-41.45Q-150.39999999999995-35.1 -150.39999999999995-26.7L-150.39999999999995-26.7ZM-178.29999999999995-42.8Q-183.59999999999997-42.8 -187.19999999999996-39.8Q-190.79999999999995-36.8 -191.59999999999997-31.6L-191.59999999999997-31.6L-165.09999999999997-31.6Q-165.89999999999995-36.7 -169.49999999999994-39.75Q-173.09999999999997-42.8 -178.29999999999995-42.8L-178.29999999999995-42.8ZM-109.49999999999996-13.6L-105.29999999999995-2.6Q-107.59999999999997-0.9 -110.94999999999996-0.05Q-114.29999999999995 0.8 -117.99999999999996 0.8L-117.99999999999996 0.8Q-127.59999999999997 0.8 -132.84999999999997-4.1Q-138.09999999999997-9 -138.09999999999997-18.5L-138.09999999999997-18.5L-138.09999999999997-40.6L-146.39999999999995-40.6L-146.39999999999995-52.6L-138.09999999999997-52.6L-138.09999999999997-65.7L-122.49999999999996-65.7L-122.49999999999996-52.6L-109.09999999999997-52.6L-109.09999999999997-40.6L-122.49999999999996-40.6L-122.49999999999996-18.7Q-122.49999999999996-15.3 -120.74999999999996-13.45Q-118.99999999999996-11.6 -115.79999999999995-11.6L-115.79999999999995-11.6Q-112.09999999999997-11.6 -109.49999999999996-13.6L-109.49999999999996-13.6ZM-81.59999999999997-46.7Q-78.79999999999995-50.6 -74.04999999999995-52.6Q-69.29999999999995-54.6 -63.09999999999996-54.6L-63.09999999999996-54.6L-63.09999999999996-40.2Q-65.69999999999996-40.4 -66.59999999999997-40.4L-66.59999999999997-40.4Q-73.29999999999995-40.4 -77.09999999999997-36.65Q-80.89999999999996-32.9 -80.89999999999996-25.4L-80.89999999999996-25.4L-80.89999999999996 0L-96.49999999999996 0L-96.49999999999996-53.8L-81.59999999999997-53.8L-81.59999999999997-46.7ZM-28.69999999999996 0.8Q-37.19999999999996 0.8 -43.94999999999996-2.75Q-50.69999999999996-6.3 -54.49999999999996-12.6Q-58.299999999999955-18.9 -58.299999999999955-26.9L-58.299999999999955-26.9Q-58.299999999999955-34.9 -54.49999999999996-41.2Q-50.69999999999996-47.5 -43.94999999999996-51.05Q-37.19999999999996-54.6 -28.69999999999996-54.6L-28.69999999999996-54.6Q-20.19999999999996-54.6 -13.499999999999957-51.05Q-6.7999999999999545-47.5 -2.9999999999999574-41.2Q 0.8000000000000398-34.9  0.8000000000000398-26.9L 0.8000000000000398-26.9Q 0.8000000000000398-18.9 -2.9999999999999574-12.6Q-6.7999999999999545-6.3 -13.499999999999957-2.75Q-20.19999999999996 0.8 -28.69999999999996 0.8L-28.69999999999996 0.8ZM-28.69999999999996-12Q-22.69999999999996-12 -18.84999999999996-16.05Q-14.999999999999957-20.1 -14.999999999999957-26.9L-14.999999999999957-26.9Q-14.999999999999957-33.7 -18.84999999999996-37.75Q-22.69999999999996-41.8 -28.69999999999996-41.8L-28.69999999999996-41.8Q-34.69999999999996-41.8 -38.59999999999996-37.75Q-42.49999999999996-33.7 -42.49999999999996-26.9L-42.49999999999996-26.9Q-42.49999999999996-20.1 -38.59999999999996-16.05Q-34.69999999999996-12 -28.69999999999996-12L-28.69999999999996-12ZM 92.00000000000004-36.4Q 98.00000000000004-34.5  101.40000000000003-30.05Q 104.80000000000004-25.6  104.80000000000004-19.1L 104.80000000000004-19.1Q 104.80000000000004-9.9  97.65000000000003-4.95Q 90.50000000000004 0  76.80000000000004 0L 76.80000000000004 0L 40.60000000000004 0L 40.60000000000004-70L 74.80000000000004-70Q 87.60000000000004-70  94.45000000000005-65.1Q 101.30000000000004-60.2  101.30000000000004-51.8L 101.30000000000004-51.8Q 101.30000000000004-46.7  98.85000000000004-42.7Q 96.40000000000003-38.7  92.00000000000004-36.4L 92.00000000000004-36.4ZM 72.80000000000004-57.8L 56.70000000000004-57.8L 56.70000000000004-41.3L 72.80000000000004-41.3Q 78.80000000000004-41.3  81.90000000000003-43.4Q 85.00000000000004-45.5  85.00000000000004-49.6L 85.00000000000004-49.6Q 85.00000000000004-53.7  81.90000000000003-55.75Q 78.80000000000004-57.8  72.80000000000004-57.8L 72.80000000000004-57.8ZM 75.60000000000004-12.2Q 82.00000000000004-12.2  85.25000000000004-14.3Q 88.50000000000004-16.4  88.50000000000004-20.8L 88.50000000000004-20.8Q 88.50000000000004-29.5  75.60000000000004-29.5L 75.60000000000004-29.5L 56.70000000000004-29.5L 56.70000000000004-12.2L 75.60000000000004-12.2ZM 141.60000000000002 0.8Q 133.10000000000005 0.8  126.35000000000004-2.75Q 119.60000000000004-6.3  115.80000000000004-12.6Q 112.00000000000004-18.9  112.00000000000004-26.9L 112.00000000000004-26.9Q 112.00000000000004-34.9  115.80000000000004-41.2Q 119.60000000000004-47.5  126.35000000000004-51.05Q 133.10000000000005-54.6  141.60000000000002-54.6L 141.60000000000002-54.6Q 150.10000000000002-54.6  156.80000000000004-51.05Q 163.50000000000006-47.5  167.30000000000004-41.2Q 171.10000000000002-34.9  171.10000000000002-26.9L 171.10000000000002-26.9Q 171.10000000000002-18.9  167.30000000000004-12.6Q 163.50000000000006-6.3  156.80000000000004-2.75Q 150.10000000000002 0.8  141.60000000000002 0.8L 141.60000000000002 0.8ZM 141.60000000000002-12Q 147.60000000000002-12  151.45000000000005-16.05Q 155.30000000000004-20.1  155.30000000000004-26.9L 155.30000000000004-26.9Q 155.30000000000004-33.7  151.45000000000005-37.75Q 147.60000000000002-41.8  141.60000000000002-41.8L 141.60000000000002-41.8Q 135.60000000000005-41.8  131.70000000000005-37.75Q 127.80000000000004-33.7  127.80000000000004-26.9L 127.80000000000004-26.9Q 127.80000000000004-20.1  131.70000000000005-16.05Q 135.60000000000005-12  141.60000000000002-12L 141.60000000000002-12ZM 207.10000000000002 0.8Q 198.60000000000005 0.8  191.85000000000005-2.75Q 185.10000000000005-6.3  181.30000000000004-12.6Q 177.50000000000003-18.9  177.50000000000003-26.9L 177.50000000000003-26.9Q 177.50000000000003-34.9  181.30000000000004-41.2Q 185.10000000000005-47.5  191.85000000000005-51.05Q 198.60000000000005-54.6  207.10000000000002-54.6L 207.10000000000002-54.6Q 215.60000000000002-54.6  222.30000000000004-51.05Q 229.00000000000006-47.5  232.80000000000004-41.2Q 236.60000000000002-34.9  236.60000000000002-26.9L 236.60000000000002-26.9Q 236.60000000000002-18.9  232.80000000000004-12.6Q 229.00000000000006-6.3  222.30000000000004-2.75Q 215.60000000000002 0.8  207.10000000000002 0.8L 207.10000000000002 0.8ZM 207.10000000000002-12Q 213.10000000000002-12  216.95000000000005-16.05Q 220.80000000000004-20.1  220.80000000000004-26.9L 220.80000000000004-26.9Q 220.80000000000004-33.7  216.95000000000005-37.75Q 213.10000000000002-41.8  207.10000000000002-41.8L 207.10000000000002-41.8Q 201.10000000000005-41.8  197.20000000000005-37.75Q 193.30000000000004-33.7  193.30000000000004-26.9L 193.30000000000004-26.9Q 193.30000000000004-20.1  197.20000000000005-16.05Q 201.10000000000005-12  207.10000000000002-12L 207.10000000000002-12ZM 287.1000000000001 0L 270.1000000000001-21.1L 262.6000000000001-13.7L 262.6000000000001 0L 247.00000000000006 0L 247.00000000000006-74.2L 262.6000000000001-74.2L 262.6000000000001-32.2L 285.4000000000001-53.8L 304.00000000000006-53.8L 281.6000000000001-31L 306.00000000000006 0L 287.1000000000001 0Z"></path></svg>
